<svg version="1.1" id="Layer_1" xmlns="http://www.w3.org/2000/svg" xmlns:xlink="http://www.w3.org/1999/xlink" x="0px" y="0px"
	 width="100%" viewBox="0 0 240 224" enable-background="new 0 0 240 224" xml:space="preserve">
<path fill="#000000" opacity="1.000000" stroke="none"
	  d="
M85.677185,178.583298
	C86.153709,167.469406 88.934166,157.152420 91.327782,146.841751
	C92.926247,139.956284 98.609978,135.707657 105.251137,132.764389
	C100.483238,138.859695 96.175797,145.117554 94.089996,152.912628
	C97.766609,150.215164 100.754303,146.876404 106.849854,146.002426
	C99.841309,153.133255 94.517769,159.834518 91.619888,168.109970
	C91.981964,168.227600 92.382172,168.475052 92.498802,168.378815
	C103.722267,159.117935 116.768036,158.516525 130.310516,160.481369
	C133.596954,160.958176 136.799469,162.020218 140.087234,162.478531
	C142.073013,162.755356 144.409409,163.439621 146.165436,160.866058
	C142.310837,158.367767 137.255066,158.036926 134.101028,153.802429
	C137.435684,152.069427 140.284729,153.970230 143.180923,154.389420
	C145.457672,154.718948 147.567337,155.972992 150.016342,155.389053
	C155.439575,154.095993 157.447601,150.479874 155.756516,144.768433
	C156.894073,142.871231 159.386368,144.954483 160.911865,142.664429
	C154.537491,136.123856 153.116837,127.759315 152.523071,118.692184
	C151.787186,107.454605 135.066422,93.407532 124.157532,93.358101
	C121.853760,93.347664 122.076889,95.385048 120.586464,96.265823
	C115.408562,85.757172 108.299385,77.006577 98.159370,68.589081
	C99.407867,77.186600 96.402061,83.573601 94.450996,90.207764
	C92.167038,97.973877 93.863937,105.335938 96.749580,112.602783
	C97.526520,114.559319 98.963432,116.330345 98.801041,119.186470
	C94.161003,117.626930 93.935791,112.594177 90.707916,109.954437
	C85.332481,110.814087 82.091713,115.480522 77.064972,118.761528
	C77.684059,113.212196 80.719154,110.267700 84.382774,108.093559
	C88.260025,105.792648 90.337654,102.988319 89.021255,98.027412
	C84.554939,98.408409 81.629990,101.253532 79.065407,104.466194
	C72.578796,112.592033 65.028679,119.144310 54.647167,121.723473
	C54.014462,121.880661 53.363007,121.962395 52.758537,122.072289
	C47.476738,111.224098 55.253132,79.432770 74.384644,63.213421
	C101.198822,40.480846 138.267471,39.170197 164.951050,60.309074
	C191.425781,81.282501 199.438950,117.692276 183.903259,147.597153
	C175.142136,164.461533 161.621552,176.190063 143.535355,182.096725
	C125.558723,187.967606 107.775764,186.672882 90.884094,178.871674
	C88.799797,179.617310 88.824043,181.973450 86.974884,182.388016
	C85.187943,181.768173 85.913536,180.204407 85.677185,178.583298
M113.636070,79.910912
	C115.384789,82.342484 117.199799,84.730095 118.853882,87.224419
	C119.664825,88.447319 120.401024,89.265671 122.047035,88.848152
	C132.599960,86.171326 146.627960,76.888977 141.973999,61.180355
	C141.717300,60.313950 141.176102,59.251541 142.698181,58.427795
	C146.133987,61.044537 146.549271,65.050919 147.290497,68.886009
	C148.988403,77.670860 148.493561,86.515190 147.115952,95.220360
	C146.404297,99.717308 147.683578,102.895340 150.413895,106.054832
	C155.125397,111.506958 157.964294,117.487579 157.429260,125.114838
	C157.017502,130.984741 159.814850,136.226257 164.236328,140.096771
	C167.121643,142.622543 166.767075,144.868729 164.926559,147.434296
	C159.847946,154.513519 153.420395,160.285980 146.717468,165.748306
	C144.515381,167.542816 141.771423,167.483612 139.062286,167.008102
	C137.260849,166.691895 135.444626,166.187729 133.641006,166.211975
	C129.693680,166.265030 127.648598,170.427002 128.170273,176.272476
	C128.585144,180.921097 131.746017,179.912170 134.403137,179.431061
	C163.269165,174.204330 186.341934,146.822525 186.669632,117.517479
	C187.106506,78.449081 156.730743,48.813534 117.586891,50.403790
	C108.287704,50.781578 99.370895,53.197567 90.717041,58.092278
	C100.163788,63.768845 106.657135,71.581825 113.636070,79.910912
M56.284977,114.913696
	C56.420715,116.011063 55.982243,117.292755 57.496975,118.165436
	C62.928078,116.184853 67.691399,113.079491 71.330360,108.327950
	C75.292351,103.154625 79.755882,98.462097 85.160667,94.786865
	C93.772026,88.931168 96.750633,73.801590 90.886459,65.180008
	C87.842590,60.704884 86.297920,60.313007 82.087143,63.568352
	C65.562241,76.343697 57.019218,93.240097 56.284977,114.913696
M124.317101,175.801468
	C122.646385,171.914856 124.028175,168.057129 124.800636,163.999191
	C120.627113,163.034790 116.834290,162.926392 113.008781,163.915070
	C114.109642,173.036865 119.139297,179.255615 125.866486,180.074890
	C126.189919,178.608246 124.964935,177.671066 124.317101,175.801468
M108.634995,179.539062
	C109.968468,179.448120 111.479378,180.279221 112.800011,178.818954
	C109.507950,175.028671 107.190094,170.893082 106.092690,165.640396
	C102.200249,169.037766 95.951172,168.093826 94.095154,174.268921
	C98.298004,177.090652 103.189278,178.004303 108.634995,179.539062
M137.824844,93.353699
	C141.174225,95.275703 143.171616,94.247749 143.549423,90.487488
	C144.001450,85.988777 145.460648,81.528641 144.301224,76.481178
	C139.988480,82.865204 134.454453,87.299660 127.285477,90.640228
	C131.042816,91.560089 134.079636,92.303566 137.824844,93.353699
z" />
<path fill="#000000" opacity="1.000000" stroke="none"
	  d="
M101.175064,95.610741
	C102.357941,92.097946 103.370041,88.955437 105.605499,86.455185
	C109.237267,88.182922 114.509109,96.995293 114.001556,100.313454
	C113.928955,100.788078 113.782364,101.416176 113.444107,101.660576
	C108.663315,105.114830 106.905838,110.670029 103.802246,116.453529
	C98.910568,109.472420 100.055779,102.725632 101.175064,95.610741
z" />
<path fill="#000000" opacity="1.000000" stroke="none"
	  d="
M142.645966,121.840012
	C144.176376,124.371056 145.447464,126.589439 146.818237,128.981750
	C135.976807,128.556519 134.541733,127.913155 129.773102,121.211418
	C134.172089,120.560974 138.269272,119.959450 142.645966,121.840012
z" />
</svg>